<?xml version="1.0" encoding="UTF-8" standalone="no"?>
<svg
   viewBox="0 0 1600 400"
   width="1600"
   height="400"
   role="img"
   aria-labelledby="logoTitle logoDesc"
   version="1.1"
   id="svg27"
   xmlns="http://www.w3.org/2000/svg"
   xmlns:svg="http://www.w3.org/2000/svg">
  <title
     id="logoTitle">Denizli Kuyumcu — koyu zemin</title>
  <desc
     id="logoDesc">Koyu zeminler için altın sembollü, beyaz yazılı şeffaf logo.</desc>
  <defs
     id="defs15">
    <linearGradient
       id="goldMetal"
       x1="0"
       y1="0"
       x2="1"
       y2="1">
      <stop
         offset="0"
         stop-color="#8B642C"
         id="stop4" />
      <stop
         offset="0.28"
         stop-color="#C49A43"
         id="stop6" />
      <stop
         offset="0.52"
         stop-color="#E1BD67"
         id="stop8" />
      <stop
         offset="0.76"
         stop-color="#B1832F"
         id="stop10" />
      <stop
         offset="1"
         stop-color="#D4AA50"
         id="stop12" />
    </linearGradient>
  </defs>
  <g
     transform="matrix(0.96774194,0,0,0.96774194,55,20)"
     id="g19">
    <path
       d="m 0,165.5 c 0.19,-1.6 1.34,-7.17 2.15,-10 0.81,-2.83 3.52,-11.49 5,-15 1.47,-3.51 5.8,-12.43 7.99,-16 2.2,-3.57 8.6,-12.36 11.36,-15.46 2.76,-3.1 10.73,-9.98 13,-11.9 2.27,-1.91 4.39,-3.52 7,-5 2.61,-1.47 12.71,-6.63 16,-7.99 3.29,-1.36 9.94,-3.31 13,-4 3.06,-0.7 10.71,-1.9 14,-2.15 3.29,-0.24 12.39,-0.13 15,0 2.61,0.13 4.94,0.45 8,1.15 3.06,0.69 14.92,3.52 19,5 4.08,1.47 12.98,5.57 17,7.99 4.02,2.42 14.6,9.97 18.46,13.36 3.85,3.39 12.38,12.58 15.54,16.54 3.16,3.97 10.05,14.33 12.36,18.46 2.3,4.13 6.41,13.24 7.99,18 1.59,4.76 5.19,18.9 6,24 0.81,5.1 0.97,18.47 1.16,21 0.18,2.53 0.33,0.87 0.49,1.3 0.33,0.02 -0.13,0.72 1,0.05 1.13,-0.68 7.53,-4.87 9,-5.99 1.47,-1.12 2.71,-2.28 4,-3.9 1.29,-1.63 5.96,-8.03 7.36,-10.46 1.4,-2.43 4.09,-8.62 4.99,-11 0.91,-2.38 2.42,-7.39 3,-10 0.59,-2.61 1.79,-8.47 2.15,-13 0.35,-4.53 0.65,-22.47 1,-27 0.36,-4.53 1.22,-9.37 2.15,-13 0.92,-3.63 4.41,-15.15 6,-19 1.58,-3.85 5.84,-11.83 7.99,-15 2.16,-3.17 8.52,-10.47 11.05,-13 2.53,-2.53 8.55,-7.5 11.31,-9.36 2.76,-1.85 10.05,-5.72 13,-6.99 2.95,-1.27 11.08,-3.69 13,-4.21 1.92,-0.53 2.64,-0.29 3.96,-0.44 -3.32,-0.17 -7.93,-0.68 -9.96,-0.5 -2.04,0.19 -6.19,1.45 -8,2.15 -1.81,0.69 -5.96,2.67 -8,3.99 -2.04,1.33 -6.15,6.82 -10,7.71 -3.85,0.89 -20.6,0.26 -24,0.15 -3.4,-0.12 -3.73,-0.34 -6,-1.15 -2.27,-0.8 -11.62,-4.65 -14,-5.99 -2.38,-1.35 -5.71,-4.5 -7,-5.9 -1.29,-1.4 -3.63,-5.05 -4.35,-6.46 -0.72,-1.41 -1.81,-4.41 -2,-6 -0.2,-1.59 0.18,-5.33 0.27,-8 2.02,1.12 4.48,2.75 6.08,3.35 1.6,0.61 5.96,1.76 8,2 2.04,0.25 8.19,0.26 10,0.15 1.81,-0.12 4.3,-0.68 6,-1.15 1.7,-0.47 6.93,-2.05 9,-3 2.07,-0.94 6.2,-3.57 9.3,-5.35 -0.93,-2 -1.62,-4.75 -2.8,-6 -1.18,-1.25 -5.05,-3.33 -7.58,-5 0.69,-0.79 0.26,-1.52 2.08,-2.36 1.82,-0.83 10.26,-4.43 14,-4.99 3.74,-0.57 15.71,-0.34 19,0 3.29,0.34 8.19,2.32 10,3 1.81,0.68 4.37,1.82 6,2.99 1.63,1.18 6.83,5.39 8.36,7.36 1.53,1.97 4.55,7.28 5.14,10 0.58,2.72 0.17,11.95 0,14 -0.17,2.05 -1,2.72 -1.5,4.08 4.67,0.86 11.17,1.71 14,2.57 2.83,0.85 9.15,3.93 11,4.99 1.85,1.06 3.53,2.91 5.3,4.36 -0.1,0.43 -0.2,0.87 -0.3,1.3 -3,0.45 -6.8,0.7 -9,1.35 -2.21,0.64 -8.26,2.72 -10.46,4.35 -2.19,1.63 -7.64,7.96 -8.89,10 -1.25,2.04 -1.92,5.85 -2.15,8 -0.22,2.15 -0.21,8.62 0.15,11 0.35,2.38 0.76,5.47 3,10 2.23,4.53 14.13,24.79 16.7,30 2.58,5.21 4.98,12.71 6,16 1.02,3.29 2.53,10.51 3,13 0.47,2.49 1.02,6.05 1.15,9 0.13,2.95 0.24,13.6 0,17 -0.25,3.4 -1.34,9.6 -2.15,13 -0.81,3.4 -3.75,13.6 -5,17 -1.24,3.4 -4.07,9.6 -5.99,13 -1.93,3.4 -8.13,13.32 -11,17 -2.88,3.68 -11.15,12.51 -14.36,15.5 -3.21,2.99 -11.51,9.06 -14,10.86 -2.49,1.79 -4.03,2.92 -8,5 -3.97,2.07 -22.35,10.32 -27,13.28 -4.65,2.97 -11.01,9.35 -14,12.9 -2.99,3.56 -10.16,14.1 -12.36,18.46 -2.19,4.36 -6.13,16.91 -6.99,20 -0.87,3.09 -0.43,4.87 -0.65,7.3 5.33,1.12 12.83,2.4 16,3.35 3.17,0.94 9.85,3.98 12,5 2.15,1.02 5.07,2.63 7,3.99 1.93,1.37 8.63,6.76 10,8.05 1.37,1.29 1.38,2.21 2.08,3.31 -0.36,0.15 11.17,0.45 -1.08,0.46 -12.25,0.01 -71.33,-0.25 -107,-0.38 2,-1.81 4.02,-3.95 6,-5.44 1.98,-1.48 8.92,-5.41 11.46,-7.64 2.53,-2.23 9.31,-9.62 10.9,-12 1.59,-2.38 2.8,-7.07 3.14,-9 0.34,-1.93 0.1,-6.41 -0.15,-8 -0.24,-1.59 -0.71,-4.37 -2,-6 -1.28,-1.63 -7.27,-7.16 -9.35,-8.35 -2.08,-1.19 -7.41,-1.92 -9,-2.15 -1.59,-0.22 -3.19,-0.21 -5,0.15 -1.81,0.35 -8.39,1.82 -11,3 -2.61,1.18 -8,4.94 -12,7.42 -0.1,-0.36 -0.2,-0.71 -0.29,-1.07 2.76,-4.15 5.13,-8.94 8.29,-12.46 3.16,-3.51 15.8,-15.38 19.54,-18.54 3.74,-3.16 9.44,-6.9 13.46,-9.36 4.02,-2.45 16.45,-8.96 22,-12.28 5.55,-3.32 22.24,-13.73 27,-17 4.76,-3.27 11.22,-8.31 15,-11.86 3.78,-3.55 14.92,-15.25 18.36,-19.5 3.44,-4.25 9.84,-14.37 12,-18 2.15,-3.63 5.23,-9.35 6.99,-14 1.77,-4.65 5.71,-18 8.57,-27 3.77,2 7.54,4 11.31,6 0.04,-0.67 0.87,0.15 0.12,-2 -0.74,-2.15 -5.3,-12.13 -6.7,-17 -1.4,-4.87 -3.77,-17.32 -5.65,-25.97 -4.83,6.32 -10.88,15.12 -14.5,18.97 -3.62,3.85 -11.65,10 -17.47,15 2.32,0.17 5.5,0.55 6.97,0.5 1.47,-0.06 5.17,-0.94 6,-0.99 0.83,-0.06 0.87,0.33 1.3,0.49 0.02,0.33 0.5,-0.36 0.05,1 -0.45,1.36 -2.75,8.28 -4,11 -1.24,2.72 -4.46,9.21 -6.99,13 -2.54,3.79 -11.4,15.92 -15.36,20.46 -3.96,4.53 -14.78,15.36 -19.54,19.54 -4.76,4.18 -16.63,13.09 -22.46,17.36 -5.83,4.26 -23.79,16.41 -29,20.28 -5.21,3.87 -12.92,10.13 -17,13.86 -4.08,3.73 -12.65,11.93 -19,19.04 -6.35,7.12 -24.67,29.17 -37,43.76 -0.33,0 -0.67,0 -1,0 -0.16,-0.43 -0.56,-0.59 -0.49,-1.3 0.07,-0.71 -0.55,-0.13 1.14,-5 1.68,-4.87 11.79,-31.77 13.7,-38 1.91,-6.23 2.92,-13.83 3.15,-17 0.22,-3.17 -0.52,-8.68 -1.15,-11 -0.62,-2.32 -3.06,-7.6 -4.35,-9.46 -1.29,-1.85 -5.07,-5.65 -7,-6.9 -1.93,-1.25 -7.39,-3.68 -10,-4.14 -2.61,-0.45 -10.17,-0.44 -13,0.15 -2.83,0.58 -9.39,3.31 -12,4.99 -2.61,1.69 -8.81,7.37 -11,9.9 -2.19,2.54 -6.84,9.69 -8.36,12.46 -1.51,2.77 -4.2,9.85 -4.99,12 -0.8,2.15 -1.63,4.96 -2,7 -0.38,2.04 -1,9.4 -1.3,11 -0.3,1.6 -0.9,2.05 -1.35,3.08 -0.45,-0.36 -0.74,0.06 -1.35,-1.08 -0.61,-1.14 -3.21,-6.73 -4,-9 -0.8,-2.27 -2.53,-8.96 -3,-11 -0.47,-2.04 -1.02,-4.28 -1.15,-7 -0.13,-2.72 -0.35,-13.37 0,-17 0.36,-3.63 2,-11.49 3.15,-15 1.14,-3.51 5.48,-13.11 6.99,-16 1.52,-2.89 4.39,-7.13 6.36,-9.46 1.97,-2.32 9.19,-9.35 11,-11.04 1.81,-1.69 2.51,-2.51 5,-3.86 2.49,-1.34 13.6,-6.75 17,-7.99 3.4,-1.25 10.4,-2.59 13,-3 2.6,-0.42 6.65,-0.43 9.97,-0.65 -0.65,-0.45 -1.07,-1.06 -1.97,-1.35 -0.9,-0.28 -2.83,-1.02 -6,-1.15 -3.17,-0.13 -17.92,-0.35 -22,0 -4.08,0.36 -10.49,1.88 -14,3.15 -3.51,1.26 -13.89,6.25 -17,7.99 -3.11,1.74 -7.85,5.1 -10.46,7.36 -2.6,2.26 -10.17,9.82 -12.54,12.54 -2.37,2.72 -6.73,8.91 -8.36,11.46 -1.62,2.55 -5.01,8.93 -5.99,11 -0.98,2.07 -1.77,4.87 -2.65,7.3 -0.33,0 -0.67,0 -1,0 -0.16,-0.43 -0.43,1.57 -0.49,-1.3 -0.06,-2.87 -0.36,-19.58 -0.01,-24 0.36,-4.42 2.45,-12.28 3.15,-15 0.69,-2.72 1.98,-6.51 3,-9 1.02,-2.49 4.03,-9.66 5.99,-13 1.97,-3.34 8.49,-13.13 11.36,-16.46 2.87,-3.32 10.15,-10.19 14,-12.9 3.85,-2.7 15.69,-9.18 20,-10.99 4.31,-1.82 13.47,-4.31 18,-5 4.53,-0.7 17.24,-1.4 22,-1.15 4.76,0.26 13.33,2.26 20,3.39 -1.33,-1.08 -2.64,-2.43 -4,-3.25 -1.36,-0.82 -5.39,-2.97 -8,-3.99 -2.61,-1.02 -11.83,-4.19 -15,-5 -3.17,-0.81 -9.15,-1.92 -13,-2.15 -3.85,-0.22 -16.92,-0.21 -21,0.15 -4.08,0.35 -11.49,1.98 -15,3 -3.51,1.02 -11.98,3.92 -16,6 -4.02,2.08 -15.26,9.01 -19.46,12.35 C 13.85,155.84 6.35,163.88 0.5,169.58 0.33,168.22 -0.18,167.1 0,165.5 Z"
       fill="url(#goldMetal)"
       fill-rule="evenodd"
       clip-rule="evenodd"
       id="path17" />
  </g>
  <g
     aria-label="Denizli"
     id="text21"
     style="font-weight:700;font-size:145px;font-family:'Nimbus Sans';fill:#ffffff">
    <path
       d="m 456.165,228 h 41.325 c 16.095,0 26.245,-3.77 33.495,-12.325 8.265,-9.86 12.76,-24.07 12.76,-40.6 0,-16.385 -4.495,-30.595 -12.76,-40.6 -7.25,-8.555 -17.255,-12.18 -33.495,-12.18 h -41.325 z m 21.75,-18.125 V 140.42 h 19.575 c 16.385,0 24.505,11.455 24.505,34.8 0,23.2 -8.12,34.655 -24.505,34.655 z"
       id="path31" />
    <path
       d="m 627.26497,195.23 c 0.145,-1.74 0.145,-2.465 0.145,-3.48 0,-7.83 -1.16,-15.08 -3.045,-20.59 -5.22,-14.21 -17.835,-22.765 -33.64,-22.765 -22.475,0 -36.25,16.24 -36.25,42.485 0,25.085 13.63,40.455 35.815,40.455 17.545,0 31.755,-9.86 36.25,-25.375 h -20.01 c -2.465,6.235 -8.12,9.86 -15.515,9.86 -5.8,0 -10.44,-2.465 -13.34,-6.815 -1.885,-2.9 -2.61,-6.38 -2.9,-13.775 z m -52.2,-13.485 c 1.305,-12.035 6.38,-17.835 15.37,-17.835 9.28,0 14.79,6.235 15.805,17.835 z"
       id="path33" />
    <path
       d="M 641.03994,149.7 V 228 h 20.3 v -46.98 c 0,-9.28 6.38,-15.37 16.385,-15.37 8.7,0 13.05,4.785 13.05,14.065 V 228 h 20.3 v -52.49 c 0,-17.4 -9.425,-27.115 -26.245,-27.115 -10.585,0 -17.69,3.77 -23.49,12.615 V 149.7 Z"
       id="path35" />
    <path
       d="m 750.51494,149.7 h -20.3 V 228 h 20.3 z m 0,-27.405 h -20.3 v 18.125 h 20.3 z"
       id="path37" />
    <path
       d="m 826.34992,149.7 h -60.9 v 16.385 h 36.105 l -38.715,45.53 V 228 h 64.815 v -16.385 h -39.73 l 38.425,-45.53 z"
       id="path39" />
    <path
       d="m 862.30992,122.295 h -20.3 V 228 h 20.3 z"
       id="path41" />
    <path
       d="m 902.61992,149.7 h -20.3 V 228 h 20.3 z m 0,-27.405 h -20.3 v 18.125 h 20.3 z"
       id="path43" />
  </g>
  <g
     aria-label="Kuyumcu"
     id="text23"
     style="font-size:145px;font-family:'Nimbus Sans';fill:#ffffff">
    <path
       d="m 958.16198,191.025 17.255,-17.255 37.26502,54.23 h 15.95 l -43.50002,-62.64 43.06502,-43.065 h -17.4 L 958.16198,175.8 v -53.505 h -13.485 V 228 h 13.485 z"
       id="path46" />
    <path
       d="m 1096.9269,228 v -75.98 h -12.035 v 43.065 c 0,15.515 -8.12,25.665 -20.735,25.665 -9.57,0 -15.66,-5.8 -15.66,-14.935 V 152.02 h -12.035 v 58.58 c 0,12.615 9.425,20.735 24.215,20.735 11.165,0 18.27,-3.915 25.375,-13.92 V 228 Z"
       id="path48" />
    <path
       d="m 1162.6117,152.02 -21.025,59.16 -19.43,-59.16 h -12.905 l 25.665,76.27 -4.64,12.035 c -2.03,5.365 -4.64,7.395 -9.715,7.395 -2.03,0 -3.77,-0.29 -6.38,-0.87 v 10.875 c 2.465,1.305 4.93,1.885 8.12,1.885 3.915,0 8.12,-1.305 11.31,-3.625 3.77,-2.755 5.945,-5.945 8.265,-12.035 l 33.785,-91.93 z"
       id="path50" />
    <path
       d="m 1248.7417,228 v -75.98 h -12.035 v 43.065 c 0,15.515 -8.12,25.665 -20.735,25.665 -9.57,0 -15.66,-5.8 -15.66,-14.935 V 152.02 h -12.035 v 58.58 c 0,12.615 9.425,20.735 24.215,20.735 11.165,0 18.27,-3.915 25.375,-13.92 V 228 Z"
       id="path52" />
    <path
       d="M 1269.6217,152.02 V 228 h 12.18 v -47.705 c 0,-11.02 7.975,-19.865 17.835,-19.865 8.99,0 14.065,5.51 14.065,15.225 V 228 h 12.18 v -47.705 c 0,-11.02 7.975,-19.865 17.835,-19.865 8.845,0 14.065,5.655 14.065,15.225 V 228 h 12.18 v -56.985 c 0,-13.63 -7.83,-21.17 -22.04,-21.17 -10.15,0 -16.24,3.045 -23.345,11.6 -4.495,-8.12 -10.585,-11.6 -20.445,-11.6 -10.15,0 -16.965,3.77 -23.345,12.905 v -10.73 z"
       id="path54" />
    <path
       d="m 1448.5517,177.54 c -0.58,-7.395 -2.175,-12.18 -5.075,-16.385 -5.22,-7.105 -14.355,-11.31 -24.94,-11.31 -20.59,0 -33.785,16.24 -33.785,41.47 0,24.505 13.05,40.02 33.64,40.02 18.125,0 29.58,-10.875 31.03,-29.435 h -12.18 c -2.03,12.18 -8.265,18.27 -18.56,18.27 -13.34,0 -21.315,-10.875 -21.315,-28.855 0,-18.995 7.83,-30.305 21.025,-30.305 10.15,0 16.53,5.945 17.98,16.53 z"
       id="path56" />
    <path
       d="m 1522.7917,228 v -75.98 h -12.035 v 43.065 c 0,15.515 -8.12,25.665 -20.735,25.665 -9.57,0 -15.66,-5.8 -15.66,-14.935 V 152.02 h -12.035 v 58.58 c 0,12.615 9.425,20.735 24.215,20.735 11.165,0 18.27,-3.915 25.375,-13.92 V 228 Z"
       id="path58" />
  </g>
  <g
     aria-label="Altın Tavsiye Kuyumcu"
     id="text25"
     style="font-size:42px;font-family:'Nimbus Sans';letter-spacing:17;fill:#ffffff">
    <path
       d="m 466.908,297.802 3.15,9.198 h 4.368 l -10.752,-30.618 h -5.04 L 447.714,307 h 4.158 l 3.234,-9.198 z m -1.092,-3.276 h -9.744 l 5.04,-13.944 z"
       id="path61" />
    <path
       d="m 498.39799,276.382 h -3.528 V 307 h 3.528 z"
       id="path63" />
    <path
       d="m 529.006,284.992 h -3.612 v -6.048 h -3.486 v 6.048 h -2.982 v 2.856 h 2.982 v 16.632 c 0,2.268 1.512,3.486 4.242,3.486 0.924,0 1.68,-0.084 2.856,-0.294 v -2.94 c -0.504,0.126 -0.966,0.168 -1.68,0.168 -1.512,0 -1.932,-0.42 -1.932,-1.974 v -15.078 h 3.612 z"
       id="path65" />
    <path
       d="m 554.48999,284.992 h -3.528 V 307 h 3.528 z"
       id="path67" />
    <path
       d="M 578.62999,284.992 V 307 h 3.528 v -12.138 c 0,-4.494 2.352,-7.434 5.964,-7.434 2.772,0 4.536,1.68 4.536,4.326 V 307 h 3.486 v -16.632 c 0,-3.654 -2.73,-6.006 -6.972,-6.006 -3.276,0 -5.376,1.26 -7.308,4.326 v -3.696 z"
       id="path69" />
    <path
       d="m 659.58597,279.826 h 10.038 v -3.444 h -24.024 v 3.444 h 10.08 V 307 h 3.906 z"
       id="path71" />
    <path
       d="m 705.69194,304.942 c -0.378,0.084 -0.546,0.084 -0.756,0.084 -1.218,0 -1.89,-0.63 -1.89,-1.722 v -12.936 c 0,-3.906 -2.856,-6.006 -8.274,-6.006 -3.234,0 -5.796,0.924 -7.308,2.562 -1.008,1.134 -1.428,2.394 -1.512,4.578 h 3.528 c 0.294,-2.688 1.89,-3.906 5.166,-3.906 3.192,0 4.914,1.176 4.914,3.276 v 0.924 c -0.042,1.512 -0.798,2.058 -3.654,2.436 -4.956,0.63 -5.712,0.798 -7.056,1.344 -2.562,1.092 -3.864,3.024 -3.864,5.88 0,3.99 2.772,6.51 7.224,6.51 2.772,0 4.998,-0.966 7.476,-3.234 0.252,2.268 1.344,3.234 3.612,3.234 0.756,0 1.218,-0.084 2.394,-0.378 z m -6.132,-4.872 c 0,1.176 -0.336,1.89 -1.386,2.856 -1.428,1.302 -3.15,1.974 -5.208,1.974 -2.73,0 -4.326,-1.302 -4.326,-3.528 0,-2.31 1.512,-3.486 5.292,-4.032 3.738,-0.504 4.452,-0.672 5.628,-1.218 z"
       id="path73" />
    <path
       d="m 734.70392,307 8.442,-22.008 h -3.948 l -6.216,17.85 -5.88,-17.85 h -3.948 l 7.728,22.008 z"
       id="path75" />
    <path
       d="m 778.79392,291.124 c -0.042,-4.326 -2.898,-6.762 -7.98,-6.762 -5.124,0 -8.442,2.646 -8.442,6.72 0,3.444 1.764,5.082 6.972,6.342 l 3.276,0.798 c 2.436,0.588 3.402,1.47 3.402,3.024 0,2.1 -2.058,3.486 -5.124,3.486 -1.89,0 -3.486,-0.546 -4.368,-1.47 -0.546,-0.63 -0.798,-1.26 -1.008,-2.814 h -3.696 c 0.168,5.082 3.024,7.518 8.778,7.518 5.544,0 9.072,-2.73 9.072,-6.972 0,-3.276 -1.848,-5.082 -6.216,-6.132 l -3.36,-0.798 c -2.856,-0.672 -4.074,-1.596 -4.074,-3.15 0,-2.058 1.806,-3.318 4.662,-3.318 2.814,0 4.326,1.218 4.41,3.528 z"
       id="path77" />
    <path
       d="m 804.69792,284.992 h -3.486 V 307 h 3.486 z m 0,-8.61 h -3.528 v 4.41 h 3.528 z"
       id="path79" />
    <path
       d="m 841.01792,284.992 -6.09,17.136 -5.628,-17.136 h -3.738 l 7.434,22.092 -1.344,3.486 c -0.588,1.554 -1.344,2.142 -2.814,2.142 -0.588,0 -1.092,-0.084 -1.848,-0.252 v 3.15 c 0.714,0.378 1.428,0.546 2.352,0.546 1.134,0 2.352,-0.378 3.276,-1.05 1.092,-0.798 1.722,-1.722 2.394,-3.486 l 9.786,-26.628 z"
       id="path81" />
    <path
       d="m 883.21794,297.172 c 0,-3.36 -0.252,-5.376 -0.882,-7.014 -1.428,-3.612 -4.788,-5.796 -8.904,-5.796 -6.132,0 -10.08,4.662 -10.08,11.928 0,7.266 3.78,11.676 9.996,11.676 5.04,0 8.526,-2.856 9.408,-7.644 h -3.528 c -0.966,2.898 -2.94,4.41 -5.754,4.41 -2.226,0 -4.116,-1.008 -5.292,-2.856 -0.84,-1.26 -1.134,-2.52 -1.176,-4.704 z m -16.128,-2.856 c 0.294,-4.074 2.772,-6.72 6.3,-6.72 3.57,0 6.048,2.772 6.048,6.72 z"
       id="path83" />
    <path
       d="m 937.92395,296.29 4.998,-4.998 10.794,15.708 h 4.62 l -12.6,-18.144 12.474,-12.474 h -5.04 l -15.246,15.498 v -15.498 h -3.906 V 307 h 3.906 z"
       id="path85" />
    <path
       d="m 995.1179,307 v -22.008 h -3.486 v 12.474 c 0,4.494 -2.352,7.434 -6.006,7.434 -2.772,0 -4.536,-1.68 -4.536,-4.326 v -15.582 h -3.486 v 16.968 c 0,3.654 2.73,6.006 7.014,6.006 3.234,0 5.292,-1.134 7.35,-4.032 V 307 Z"
       id="path87" />
    <path
       d="m 1031.1438,284.992 -6.09,17.136 -5.628,-17.136 h -3.738 l 7.434,22.092 -1.344,3.486 c -0.588,1.554 -1.344,2.142 -2.814,2.142 -0.588,0 -1.092,-0.084 -1.848,-0.252 v 3.15 c 0.714,0.378 1.428,0.546 2.352,0.546 1.134,0 2.352,-0.378 3.276,-1.05 1.092,-0.798 1.722,-1.722 2.394,-3.486 l 9.786,-26.628 z"
       id="path89" />
    <path
       d="m 1073.0918,307 v -22.008 h -3.486 v 12.474 c 0,4.494 -2.352,7.434 -6.006,7.434 -2.772,0 -4.536,-1.68 -4.536,-4.326 v -15.582 h -3.486 v 16.968 c 0,3.654 2.73,6.006 7.014,6.006 3.234,0 5.292,-1.134 7.35,-4.032 V 307 Z"
       id="path91" />
    <path
       d="M 1096.1398,284.992 V 307 h 3.528 v -13.818 c 0,-3.192 2.31,-5.754 5.166,-5.754 2.604,0 4.074,1.596 4.074,4.41 V 307 h 3.528 v -13.818 c 0,-3.192 2.31,-5.754 5.166,-5.754 2.562,0 4.074,1.638 4.074,4.41 V 307 h 3.528 v -16.506 c 0,-3.948 -2.268,-6.132 -6.384,-6.132 -2.94,0 -4.704,0.882 -6.762,3.36 -1.302,-2.352 -3.066,-3.36 -5.922,-3.36 -2.94,0 -4.914,1.092 -6.762,3.738 v -3.108 z"
       id="path93" />
    <path
       d="m 1164.9679,292.384 c -0.168,-2.142 -0.63,-3.528 -1.47,-4.746 -1.512,-2.058 -4.158,-3.276 -7.224,-3.276 -5.964,0 -9.786,4.704 -9.786,12.012 0,7.098 3.78,11.592 9.744,11.592 5.25,0 8.568,-3.15 8.988,-8.526 h -3.528 c -0.588,3.528 -2.394,5.292 -5.376,5.292 -3.864,0 -6.174,-3.15 -6.174,-8.358 0,-5.502 2.268,-8.778 6.09,-8.778 2.94,0 4.788,1.722 5.208,4.788 z"
       id="path95" />
    <path
       d="m 1203.4718,307 v -22.008 h -3.486 v 12.474 c 0,4.494 -2.352,7.434 -6.006,7.434 -2.772,0 -4.536,-1.68 -4.536,-4.326 v -15.582 h -3.486 v 16.968 c 0,3.654 2.73,6.006 7.014,6.006 3.234,0 5.292,-1.134 7.35,-4.032 V 307 Z"
       id="path97" />
  </g>
</svg>
